<?xml version="1.0" encoding="utf-8"?>
<!-- Generator: Adobe Illustrator 17.0.0, SVG Export Plug-In . SVG Version: 6.00 Build 0)  -->
<!DOCTYPE svg PUBLIC "-//W3C//DTD SVG 1.1//EN" "http://www.w3.org/Graphics/SVG/1.1/DTD/svg11.dtd">
<svg version="1.1" id="Layer_1_copy" xmlns="http://www.w3.org/2000/svg" xmlns:xlink="http://www.w3.org/1999/xlink" x="0px"
	 y="0px" width="500px" height="500px" viewBox="675 8.737 500 500" enable-background="new 675 8.737 500 500"
	 xml:space="preserve">
<g>
	<g>
		<path fill="#C8C8C8" d="M1091.744,189.277c-17.872,16.935-49.89,26.889-70.176,22.467c-34.541-7.547-57.316-32.475-86.307-51.009
			c-2.528-1.618-5.002-3.22-7.431-4.841c-5.789-1.678-11.447-3.706-16.894-6.168c-15.896-7.194-28.51-17.905-46.272-20.674
			c-32.18-4.982-62.343,3.217-81.226,16.659c-14.893,18.851-26.123,40.71-32.56,64.562c34.877-54.179,83.26-34.845,131.417,0.196
			c79.381,57.776,157.937,111.417,221.841,69.474c0.929-7.379,1.651-14.895,1.454-22.526
			C1105.009,232.004,1101.292,213.968,1091.744,189.277z"/>
	</g>
	<path fill="#FFFFFF" d="M967.69,210.836c48.136-35.053,96.526-54.357,131.403-0.189c-12.05-44.662-40.792-82.437-79.135-106.262
		c-14.518-0.91-31.431,0.282-51.369,3.947c-67.161,12.356-131.144,69.657-183.905,35.806
		c-25.189,31.032-40.306,70.57-40.306,113.649c0,7.647,0.533,15.147,1.446,22.532C809.742,322.264,888.287,268.617,967.69,210.836z"
		/>
	<g>
		<path fill="#FFFFFF" d="M880.09,116.076c30.229-4.207,59.391-24.645,89.393-31.505c-13.994-3.503-28.624-5.387-43.701-5.387
			c-34.202,0-66.183,9.582-93.397,26.2C845.016,115.898,862.677,118.497,880.09,116.076z"/>
	</g>
	<g>
		<path fill="#C8C8C8" d="M756.771,324.208c7.06,17.798,16.828,34.246,28.854,48.727c43.468-8.145,86.832,32.065,129.789,65.12
			c3.039,0.153,6.109,0.235,9.183,0.235c40.691,0,78.22-13.48,108.394-36.203C882.949,413.966,857.949,272.526,756.771,324.208z"/>
	</g>
	<path fill="#FFFFFF" d="M844.39,370.279c-17.588-1.52-45.982-7.319-72.972-17.481c31.822,51.306,88.633,85.492,153.458,85.492
		c3.086,0,6.133-0.082,9.178-0.235c42.962-33.055,86.315-73.265,129.796-65.12c12.029-14.48,21.789-30.928,28.846-48.727
		C1053.612,269.284,928.571,377.642,844.39,370.279z"/>
</g>
</svg>
